<svg xmlns="http://www.w3.org/2000/svg" width="806.17" height="758.595" viewBox="0 0 806.17 758.595">
  <g id="element.03_image3" transform="translate(-192.189 -39.55)">
    <line id="線_5" data-name="線 5" x2="804.51" transform="translate(193.02 300.25)" fill="none" stroke="#727171" stroke-linecap="round" stroke-miterlimit="10" stroke-width="1.66"/>
    <rect id="長方形_51" data-name="長方形 51" width="147.39" height="39.83" rx="19.91" transform="translate(256.27 280.33)" fill="#efefef" stroke="#727171" stroke-linecap="round" stroke-miterlimit="10" stroke-width="2.69"/>
    <path id="パス_11" data-name="パス 11" d="M593.81,212.58a3.43,3.43,0,0,1-3.25-3.55c0-1.26-.26-4.82-.48-8-.17-2.38-.33-4.63-.33-5.17s-.17-2.83-.38-4.84c-.45-4.39-.6-4.39-1.16-4.39-.16,0-.52.06-.62.64-.15.87-1.26,1.51-2.65,1.51a5,5,0,0,1-4.58-3.14l-.36-.79-.57.66a2.91,2.91,0,0,1-2.3,1.06c-2.26,0-4.71-2.17-5.23-4.63l-.13-.65-.62.25a1.273,1.273,0,0,1-.25,0c-1.33,0-4.81-1.45-5.15-4.87-1.11-11.13-.53-15,.15-16.25,1.34-2.49,3.47-7.9,4.28-9.94l.21-.53c.39-1,.05-4.68-.11-6.27,7.65-.54,14.35-.62,17.72-.62h2.82a1.421,1.421,0,0,0,.31,0h.71a1.22,1.22,0,0,1,.94.32c.3.32.63,1.08.54,2.92-.12,2.2,1.1,4.11,2.38,6.12a18.769,18.769,0,0,1,3.15,7,23.791,23.791,0,0,0,3.51,9c.43.72.84,1.41,1.21,2.15.52,1.05,1.28,2.26,2.09,3.55,1.38,2.22,3,4.74,3,6a1.4,1.4,0,0,1-.82,1.22,4.53,4.53,0,0,1-2.2.5h0a5.7,5.7,0,0,1-2-.33,8.77,8.77,0,0,1-2.63-1.92c-.72-.68-1.2-1.13-1.71-1.13-.22,0-.75.09-.86.95s-.36,4.7-.62,8.78-.55,8.52-.66,9.27c-.21,1.52-.43,7.87-.43,10.7C596.71,211.44,595.22,212.58,593.81,212.58Z" fill="#fff"/>
    <path id="パス_12" data-name="パス 12" d="M588,143.67h2.76a1.421,1.421,0,0,0,.37,0h.71c.36,0,.47.07.53.14s.49.67.39,2.51c-.12,2.38,1.14,4.36,2.48,6.45a18.249,18.249,0,0,1,3.06,6.76,24.251,24.251,0,0,0,3.58,9.23c.43.72.83,1.4,1.19,2.12.54,1.07,1.3,2.3,2.11,3.6,1.21,1.94,2.87,4.6,2.87,5.67,0,.76-1.27,1.16-2.46,1.16a5.4,5.4,0,0,1-1.78-.29,8.289,8.289,0,0,1-2.43-1.8c-.8-.75-1.37-1.29-2.1-1.29a1.43,1.43,0,0,0-1.41,1.44c-.11.86-.36,4.72-.62,8.8s-.55,8.52-.66,9.24c-.22,1.54-.43,7.94-.43,10.78a5,5,0,0,1-.82,3.07,1.93,1.93,0,0,1-1.53.74,2.87,2.87,0,0,1-2.69-3c0-1.28-.26-4.85-.48-8-.17-2.37-.33-4.61-.33-5.13s-.17-2.84-.38-4.89c-.41-4-.51-4.9-1.72-4.9a1.18,1.18,0,0,0-1.17,1.11c-.1.58-1,1-2.1,1a4.45,4.45,0,0,1-4.07-2.81l-.73-1.58L579,185.19a2.38,2.38,0,0,1-1.88.86,5.36,5.36,0,0,1-4.68-4.19l-.28-1.29-1.19.48h-.09c-.87,0-4.26-1.1-4.58-4.38-1.16-11.57-.45-14.95.08-15.93,1.36-2.52,3.5-8,4.31-10l.2-.52c.39-1,.19-4,0-6,7.4-.5,13.84-.58,17.11-.58m0-1.11c-3.7,0-10.55.1-18.34.66,0,0,.64,5.52.21,6.59s-3,7.64-4.46,10.41-.64,12.31-.21,16.56a6.28,6.28,0,0,0,5.69,5.38,1.229,1.229,0,0,0,.47-.07,6.47,6.47,0,0,0,5.77,5.07,3.44,3.44,0,0,0,2.72-1.25,5.6,5.6,0,0,0,5.09,3.47c1.62,0,3-.78,3.2-2,0-.12,0-.18.07-.18.3,0,1,7.51,1,8.68S590,206.81,590,209a4,4,0,0,0,3.8,4.11c1.76,0,3.46-1.43,3.46-4.92,0-2.77.21-9.14.43-10.62s1.06-16.36,1.27-18.06c0-.33.15-.47.31-.47.66,0,2.27,2.34,4.15,3a6.49,6.49,0,0,0,2.16.37c1.84,0,3.57-.76,3.57-2.28,0-2.12-3.61-6.8-5.09-9.77s-3.61-5.1-4.68-11-5.73-8.93-5.52-13c.18-3.45-1.06-3.83-2-3.83h-.71a.54.54,0,0,1-.23,0h-2.9Z" fill="#595757"/>
    <path id="パス_13" data-name="パス 13" d="M600.43,217v16c0,.67.41,1.13.77.85l7.49-5.69a1.34,1.34,0,0,0,.12-1.59l-7.49-10.25C601,215.76,600.43,216.2,600.43,217Z" fill="#727171"/>
    <path id="パス_14" data-name="パス 14" d="M603.24,212.69l13.14-2c.56-.09,1,.17.8.48l-3.82,6.43a1.19,1.19,0,0,1-1.3.29l-9.32-4.43C602.3,213.25,602.6,212.79,603.24,212.69Z" fill="#727171"/>
    <line id="線_6" data-name="線 6" x2="804.51" transform="translate(193.02 536.27)" fill="none" stroke="#727171" stroke-linecap="round" stroke-miterlimit="10" stroke-width="1.66"/>
    <rect id="長方形_52" data-name="長方形 52" width="147.39" height="39.83" rx="19.91" transform="translate(517.88 516.35)" fill="#efefef" stroke="#727171" stroke-linecap="round" stroke-miterlimit="10" stroke-width="2.69"/>
    <path id="パス_15" data-name="パス 15" d="M593.81,461.94a3.43,3.43,0,0,1-3.25-3.55c0-1.26-.26-4.82-.48-8-.17-2.38-.33-4.62-.33-5.17s-.17-2.82-.38-4.83c-.45-4.4-.6-4.4-1.16-4.4-.16,0-.52.07-.62.65-.15.87-1.26,1.51-2.65,1.51a5,5,0,0,1-4.58-3.14l-.36-.79-.57.66a2.9,2.9,0,0,1-2.3,1c-2.26,0-4.71-2.16-5.23-4.63l-.13-.64-.62.24a.61.61,0,0,1-.26,0c-1.32,0-4.8-1.45-5.14-4.88-1.11-11.13-.53-15,.15-16.24,1.34-2.49,3.47-7.9,4.27-9.93l.22-.54c.39-1,.05-4.68-.11-6.28,7.65-.53,14.36-.62,17.72-.62h2.82a1.421,1.421,0,0,0,.31,0h.71a1.18,1.18,0,0,1,.94.32c.3.31.63,1.08.54,2.92-.12,2.2,1.1,4.1,2.38,6.12a18.7,18.7,0,0,1,3.15,7,23.79,23.79,0,0,0,3.51,9.05c.43.72.84,1.41,1.21,2.15.52,1,1.28,2.26,2.08,3.55,1.39,2.22,3,4.73,3,6a1.4,1.4,0,0,1-.82,1.22,4.53,4.53,0,0,1-2.2.5h0a6,6,0,0,1-2-.33A8.771,8.771,0,0,1,601,429c-.72-.68-1.2-1.14-1.71-1.14-.22,0-.75.1-.86,1s-.36,4.7-.62,8.78-.55,8.52-.66,9.27c-.21,1.52-.43,7.87-.43,10.69C596.71,460.79,595.22,461.94,593.81,461.94Z" fill="#fff"/>
    <path id="パス_16" data-name="パス 16" d="M588,393h2.76a2.05,2.05,0,0,0,.37,0h.71c.36,0,.47.08.53.15s.49.66.39,2.51c-.12,2.38,1.14,4.36,2.48,6.45a18.18,18.18,0,0,1,3.06,6.76,24.319,24.319,0,0,0,3.58,9.23c.43.72.83,1.39,1.19,2.12.54,1.07,1.3,2.29,2.11,3.59,1.21,1.95,2.87,4.6,2.87,5.68,0,.75-1.27,1.16-2.46,1.16a5.4,5.4,0,0,1-1.78-.3,8.259,8.259,0,0,1-2.43-1.79c-.8-.75-1.37-1.29-2.1-1.29a1.43,1.43,0,0,0-1.41,1.44c-.11.86-.36,4.71-.62,8.8s-.55,8.51-.66,9.24c-.22,1.54-.43,7.93-.43,10.77a4.93,4.93,0,0,1-.82,3.07,1.9,1.9,0,0,1-1.53.74,2.86,2.86,0,0,1-2.69-3c0-1.27-.26-4.85-.48-8-.17-2.37-.33-4.6-.33-5.13s-.17-2.83-.38-4.89c-.41-3.95-.51-4.89-1.72-4.89a1.18,1.18,0,0,0-1.17,1.11c-.1.58-1,1-2.1,1a4.45,4.45,0,0,1-4.07-2.81l-.73-1.59L579,434.55a2.38,2.38,0,0,1-1.88.86,5.36,5.36,0,0,1-4.68-4.19l-.28-1.3-1.19.48h-.09c-.87,0-4.26-1.1-4.58-4.38-1.16-11.57-.45-14.95.08-15.93,1.36-2.52,3.5-8,4.31-10l.2-.52c.39-1,.19-4,0-6,7.4-.5,13.84-.58,17.11-.58m0-1.11c-3.7,0-10.55.09-18.34.66,0,0,.64,5.52.21,6.58s-3,7.65-4.46,10.41-.64,12.32-.21,16.57a6.28,6.28,0,0,0,5.69,5.38,1.23,1.23,0,0,0,.47-.07,6.48,6.48,0,0,0,5.77,5.07,3.47,3.47,0,0,0,2.72-1.25,5.59,5.59,0,0,0,5.09,3.46c1.62,0,3-.77,3.2-2,0-.12,0-.18.07-.18.3,0,1,7.5,1,8.67s.79,10.92.81,13.14a4,4,0,0,0,3.8,4.11c1.76,0,3.46-1.44,3.46-4.93,0-2.76.21-9.13.43-10.62s1.06-16.35,1.27-18.05c0-.33.15-.47.31-.47.66,0,2.27,2.34,4.15,3a6.48,6.48,0,0,0,2.16.36c1.84,0,3.57-.76,3.57-2.27,0-2.13-3.61-6.8-5.09-9.77s-3.61-5.1-4.68-11-5.73-8.92-5.52-13c.18-3.45-1.06-3.83-2-3.83h-.71a.749.749,0,0,1-.23,0h-2.9Z" fill="#595757"/>
    <path id="パス_17" data-name="パス 17" d="M504,489l-10.66-7.29a1.16,1.16,0,0,0-1.82,1V497.2a1.16,1.16,0,0,0,1.82,1L504,490.88a1.17,1.17,0,0,0,0-1.88Z" fill="#9fa0a0"/>
    <path id="パス_18" data-name="パス 18" d="M524,489l-10.66-7.29a1.16,1.16,0,0,0-1.82,1V497.2a1.16,1.16,0,0,0,1.82,1L524,490.88a1.17,1.17,0,0,0,0-1.88Z" fill="#898989"/>
    <path id="パス_19" data-name="パス 19" d="M544,489l-10.65-7.29a1.16,1.16,0,0,0-1.82,1V497.2a1.16,1.16,0,0,0,1.82,1L544,490.88a1.16,1.16,0,0,0,0-1.88Z" fill="#727171"/>
    <line id="線_7" data-name="線 7" x2="804.51" transform="translate(193.02 782.11)" fill="none" stroke="#727171" stroke-linecap="round" stroke-miterlimit="10" stroke-width="1.66"/>
    <rect id="長方形_53" data-name="長方形 53" width="147.39" height="29.57" rx="14.78" transform="translate(517.88 767.33)" fill="#efefef" stroke="#727171" stroke-linecap="round" stroke-miterlimit="10" stroke-width="2.49"/>
    <path id="パス_20" data-name="パス 20" d="M593.81,698a3.43,3.43,0,0,1-3.25-3.55c0-1.26-.26-4.82-.48-8-.17-2.38-.33-4.63-.33-5.17s-.17-2.83-.38-4.84c-.45-4.39-.6-4.39-1.16-4.39-.16,0-.52.06-.62.64-.15.87-1.26,1.51-2.65,1.51a5,5,0,0,1-4.58-3.14l-.36-.79-.57.66a2.91,2.91,0,0,1-2.3,1.06c-2.26,0-4.71-2.17-5.23-4.63l-.13-.65-.62.25a.873.873,0,0,1-.25,0c-1.33,0-4.81-1.46-5.15-4.88-1.11-11.14-.53-15,.15-16.25,1.34-2.49,3.47-7.89,4.27-9.93l.22-.54c.39-1,.05-4.68-.11-6.27,7.66-.54,14.37-.62,17.73-.62h2.81a1.415,1.415,0,0,0,.31,0h.71a1.219,1.219,0,0,1,.94.32c.3.32.63,1.08.54,2.92-.12,2.2,1.1,4.11,2.38,6.12a18.77,18.77,0,0,1,3.15,7,23.79,23.79,0,0,0,3.51,9c.43.72.84,1.41,1.21,2.15.52,1.05,1.28,2.26,2.08,3.55,1.39,2.22,3,4.74,3,6a1.4,1.4,0,0,1-.82,1.22,4.531,4.531,0,0,1-2.2.5h0a5.7,5.7,0,0,1-2-.33A8.77,8.77,0,0,1,601,665c-.72-.68-1.2-1.13-1.71-1.13-.22,0-.75.09-.86,1s-.36,4.7-.62,8.78-.55,8.52-.66,9.27c-.21,1.52-.43,7.87-.43,10.7C596.71,696.82,595.22,698,593.81,698Z" fill="#fff"/>
    <path id="パス_21" data-name="パス 21" d="M588,629.05h2.76a2.047,2.047,0,0,0,.37,0h.71c.36,0,.47.08.53.15s.49.66.39,2.51c-.12,2.38,1.14,4.36,2.48,6.45a18.179,18.179,0,0,1,3.06,6.76,24.249,24.249,0,0,0,3.58,9.23c.43.72.83,1.4,1.19,2.12.54,1.07,1.3,2.3,2.11,3.6,1.21,1.94,2.87,4.6,2.87,5.67,0,.75-1.27,1.16-2.46,1.16a5.4,5.4,0,0,1-1.78-.29,8.291,8.291,0,0,1-2.43-1.8c-.8-.75-1.37-1.29-2.1-1.29a1.43,1.43,0,0,0-1.41,1.44c-.11.86-.36,4.72-.62,8.8s-.55,8.52-.66,9.24c-.22,1.54-.43,7.94-.43,10.78a5,5,0,0,1-.82,3.07,1.93,1.93,0,0,1-1.53.74,2.87,2.87,0,0,1-2.69-3c0-1.27-.26-4.84-.48-8-.17-2.37-.33-4.61-.33-5.13s-.17-2.84-.38-4.89c-.41-4-.51-4.9-1.72-4.9A1.18,1.18,0,0,0,587,672.6c-.1.58-1,1-2.1,1a4.45,4.45,0,0,1-4.07-2.81l-.73-1.58-1.1,1.36a2.38,2.38,0,0,1-1.88.86,5.36,5.36,0,0,1-4.68-4.19l-.28-1.29-1.19.47h-.09c-.87,0-4.26-1.1-4.58-4.38-1.16-11.57-.45-14.95.08-15.93,1.36-2.52,3.5-8,4.31-10l.2-.52c.39-1,.19-4,0-6,7.4-.5,13.84-.58,17.11-.58m0-1.11c-3.7,0-10.55.1-18.34.66,0,0,.64,5.52.21,6.59s-3,7.64-4.46,10.4-.64,12.32-.21,16.57a6.28,6.28,0,0,0,5.69,5.38,1.23,1.23,0,0,0,.47-.07,6.47,6.47,0,0,0,5.77,5.07,3.47,3.47,0,0,0,2.72-1.25,5.6,5.6,0,0,0,5.09,3.47c1.62,0,3-.78,3.2-2,0-.12,0-.18.07-.18.3,0,1,7.5,1,8.68s.79,10.91.81,13.13a4,4,0,0,0,3.8,4.11c1.76,0,3.46-1.43,3.46-4.92,0-2.77.21-9.14.43-10.62s1.06-16.36,1.27-18.06c0-.33.15-.47.31-.47.66,0,2.27,2.34,4.15,3a6.492,6.492,0,0,0,2.16.37c1.84,0,3.57-.76,3.57-2.28,0-2.12-3.61-6.8-5.09-9.77s-3.61-5.1-4.68-11-5.73-8.92-5.52-13c.18-3.45-1.06-3.83-2-3.83h-.71a.751.751,0,0,1-.23,0h-2.9Z" fill="#595757"/>
    <rect id="長方形_54" data-name="長方形 54" width="119.53" height="10.8" transform="translate(531.81 767.33)" fill="#efefef"/>
    <path id="パス_22" data-name="パス 22" d="M531.81,767.33c18.24,0,41.76-35.49,59.77-35.49,24.38,0,42.55,35.49,59.76,35.49" fill="#efefef" stroke="#727171" stroke-linecap="round" stroke-miterlimit="10" stroke-width="2.49"/>
    <path id="パス_23" data-name="パス 23" d="M531.81,767.33c18.24,0,35.16-35.49,59.77-35.49,24.38,0,42.55,35.49,59.76,35.49" fill="#efefef" stroke="#727171" stroke-linecap="round" stroke-miterlimit="10" stroke-width="2.49"/>
    <path id="パス_24" data-name="パス 24" d="M590.93,765.11l-6.11,6.55a.85.85,0,0,0,.62,1.43h12.21a.85.85,0,0,0,.62-1.43l-6.1-6.55a.85.85,0,0,0-1.24,0Z" fill="#9fa0a0"/>
    <path id="パス_25" data-name="パス 25" d="M590.93,752.68l-6.11,6.55a.85.85,0,0,0,.62,1.43h12.21a.85.85,0,0,0,.62-1.43l-6.1-6.55a.85.85,0,0,0-1.24,0Z" fill="#898989"/>
    <path id="パス_26" data-name="パス 26" d="M590.93,740.25l-6.11,6.55a.85.85,0,0,0,.62,1.42h12.21a.84.84,0,0,0,.62-1.42l-6.1-6.55a.85.85,0,0,0-1.24,0Z" fill="#727171"/>
    <text id="_1._手をセンサーが感知" data-name="1. 手をセンサーが感知" transform="translate(193.02 156.83)" font-size="18" font-family="Helvetica"><tspan x="0" y="0">1. </tspan><tspan y="0" font-family="HiraginoSans-W3, Hiragino Sans">手をセンサーが感知</tspan></text>
    <text id="_2._手の正面へスライド" data-name="2. 手の正面へスライド" transform="translate(193.02 410.22)" font-size="18" font-family="Helvetica"><tspan x="0" y="0">2. </tspan><tspan y="0" font-family="HiraginoSans-W3, Hiragino Sans">手の正面へスライド</tspan></text>
    <text id="_3._前の物を押し出す" data-name="3. 前の物を押し出す" transform="translate(193.02 641.32)" font-size="18" font-family="Helvetica"><tspan x="0" y="0">3. </tspan><tspan y="0" font-family="HiraginoSans-W3, Hiragino Sans">前の物を押し出す</tspan></text>
    <text id="想定している動作_仕組み" data-name="想定している動作・仕組み" transform="translate(193.02 60.55)" font-size="24" font-family="HiraginoSans-W3, Hiragino Sans"><tspan x="0" y="0">想定している動作・仕組み</tspan></text>
    <text id="スライダー" transform="translate(288.59 339.75)" fill="#595757" font-size="12" font-family="HiraginoSans-W3, Hiragino Sans"><tspan x="0" y="0">スライダー</tspan></text>
    <text id="タイミングベルト" transform="translate(902.68 279.09)" fill="#595757" font-size="12" font-family="HiraginoSans-W3, Hiragino Sans"><tspan x="0" y="0">タイミングベルト</tspan></text>
    <path id="パス_27" data-name="パス 27" d="M282.04,320.16v14.03h6.55" fill="none" stroke="#727171" stroke-miterlimit="10" stroke-width="1"/>
    <path id="パス_28" data-name="パス 28" d="M899.04,274.53h-12.7v25.72" fill="none" stroke="#727171" stroke-miterlimit="10" stroke-width="1"/>
  </g>
</svg>
