<svg xmlns="http://www.w3.org/2000/svg" width="798.32" height="366.03" viewBox="0 0 798.32 366.03">
  <g id="element.03_image2" transform="translate(-163.426 -85.98)">
    <rect id="長方形_23" data-name="長方形 23" width="315.839" height="63.361" rx="31.681" transform="translate(604.282 324.9)" fill="#efefef" stroke="#727171" stroke-linecap="round" stroke-miterlimit="10" stroke-width="5.8"/>
    <rect id="長方形_24" data-name="長方形 24" width="256.132" height="23.142" transform="translate(634.135 324.9)" fill="#efefef"/>
    <path id="パス_5" data-name="パス 5" d="M674.53,336.2c39.086,0,75.328-76.037,128.066-76.037,52.25,0,91.189,76.037,128.057,76.037" transform="translate(-40.395 -11.297)" fill="#efefef" stroke="#727171" stroke-linecap="round" stroke-miterlimit="10" stroke-width="5.8"/>
    <rect id="長方形_25" data-name="長方形 25" width="315.839" height="63.361" rx="31.681" transform="translate(166.13 324.9)" fill="#efefef" stroke="#727171" stroke-linecap="round" stroke-miterlimit="10" stroke-width="5.41"/>
    <rect id="長方形_26" data-name="長方形 26" width="27.055" height="48.936" rx="1.75" transform="translate(208.088 332.117)" fill="#595757"/>
    <rect id="長方形_27" data-name="長方形 27" width="27.055" height="48.936" rx="1.75" transform="translate(259.308 332.117)" fill="#595757"/>
    <rect id="長方形_28" data-name="長方形 28" width="27.055" height="48.936" rx="1.75" transform="translate(310.517 332.117)" fill="#595757"/>
    <rect id="長方形_29" data-name="長方形 29" width="27.055" height="48.936" rx="1.75" transform="translate(361.737 332.117)" fill="#595757"/>
    <rect id="長方形_30" data-name="長方形 30" width="27.055" height="48.936" rx="1.75" transform="translate(412.956 332.117)" fill="#595757"/>
    <rect id="長方形_31" data-name="長方形 31" width="22.093" height="23.419" rx="2.35" transform="translate(648.716 317.941)" fill="#727171"/>
    <rect id="長方形_32" data-name="長方形 32" width="22.093" height="23.419" rx="2.35" transform="translate(853.584 317.941)" fill="#727171"/>
    <rect id="長方形_33" data-name="長方形 33" width="22.093" height="65.451" rx="3.93" transform="translate(699.935 275.918)" fill="#727171"/>
    <rect id="長方形_34" data-name="長方形 34" width="22.093" height="92.506" rx="4.67" transform="translate(751.155 248.863)" fill="#727171"/>
    <rect id="長方形_35" data-name="長方形 35" width="22.093" height="65.451" rx="3.93" transform="translate(802.365 275.918)" fill="#727171"/>
    <rect id="長方形_36" data-name="長方形 36" width="27.055" height="48.936" rx="1.75" transform="translate(646.24 332.117)" fill="#595757"/>
    <rect id="長方形_37" data-name="長方形 37" width="27.055" height="48.936" rx="1.75" transform="translate(697.45 332.117)" fill="#595757"/>
    <rect id="長方形_38" data-name="長方形 38" width="27.055" height="48.936" rx="1.75" transform="translate(748.669 332.117)" fill="#595757"/>
    <rect id="長方形_39" data-name="長方形 39" width="27.055" height="48.936" rx="1.75" transform="translate(799.888 332.117)" fill="#595757"/>
    <rect id="長方形_40" data-name="長方形 40" width="27.055" height="48.936" rx="1.75" transform="translate(851.098 332.117)" fill="#595757"/>
    <path id="パス_6" data-name="パス 6" d="M1007.933,306.3l-15.069,22.047a2.412,2.412,0,0,0,1.988,3.774h30.139a2.412,2.412,0,0,0,1.988-3.774L1011.91,306.3a2.412,2.412,0,0,0-3.977,0Z" transform="translate(-65.655 -14.88)" fill="#9fa0a0"/>
    <path id="パス_7" data-name="パス 7" d="M1007.933,261.41,992.864,283.5a2.4,2.4,0,0,0,1.988,3.765h30.139a2.412,2.412,0,0,0,1.988-3.765L1011.91,261.41a2.412,2.412,0,0,0-3.977,0Z" transform="translate(-65.655 -11.313)" fill="#898989"/>
    <path id="パス_8" data-name="パス 8" d="M1007.933,216.53l-15.069,22.047a2.412,2.412,0,0,0,1.988,3.774h30.139a2.412,2.412,0,0,0,1.988-3.774L1011.91,216.53a2.412,2.412,0,0,0-3.977,0Z" transform="translate(-65.655 -7.747)" fill="#727171"/>
    <path id="パス_9" data-name="パス 9" d="M588.278,326.23,566.185,341.3a2.4,2.4,0,0,1-3.765-1.988V309.172a2.4,2.4,0,0,1,3.765-1.988l22.093,15.069a2.412,2.412,0,0,1,0,3.977Z" transform="translate(-31.487 -15)" fill="#c9caca"/>
    <text id="サーボモーター_or_電動シリンダー" data-name="サーボモーター or 電動シリンダー" transform="translate(189.797 449.01)" fill="#3e3a39" font-size="15" font-family="HiraginoSans-W3, Hiragino Sans"><tspan x="0" y="0">サーボモーター</tspan><tspan y="0" xml:space="preserve" font-family="Helvetica"> or </tspan><tspan y="0">電動シリンダー</tspan></text>
    <line id="線_3" data-name="線 3" y2="68.314" transform="translate(198.257 364.861)" fill="#c9caca" stroke="#727171" stroke-linecap="round" stroke-miterlimit="10" stroke-width="1"/>
    <line id="線_4" data-name="線 4" x1="14.517" transform="translate(198.257 364.861)" fill="none" stroke="#727171" stroke-linecap="round" stroke-miterlimit="10" stroke-width="1"/>
    <text id="垂直運動により_山なりに押上げる" data-name="垂直運動により、山なりに押上げる" transform="translate(649.913 450.01)" fill="#3e3a39" font-size="16" font-family="HiraginoSans-W3, Hiragino Sans"><tspan x="0" y="0">垂直運動により、山なりに押上げる</tspan></text>
    <path id="パス_10" data-name="パス 10" d="M800.46,325.1H786.67V449.005" transform="translate(-49.305 -16.457)" fill="none" stroke="#898989" stroke-linecap="round" stroke-miterlimit="10" stroke-width="1"/>
    <rect id="長方形_41" data-name="長方形 41" width="36.794" height="124.614" rx="8.04" transform="translate(203.219 192.618)" fill="#e3e3e3"/>
    <rect id="長方形_42" data-name="長方形 42" width="36.794" height="124.614" rx="8.04" transform="translate(254.438 192.618)" fill="#e3e3e3"/>
    <rect id="長方形_43" data-name="長方形 43" width="36.794" height="124.614" rx="8.04" transform="translate(305.648 192.618)" fill="#e3e3e3"/>
    <rect id="長方形_44" data-name="長方形 44" width="36.794" height="124.614" rx="8.04" transform="translate(356.867 192.618)" fill="#e3e3e3"/>
    <rect id="長方形_45" data-name="長方形 45" width="36.794" height="124.614" rx="8.04" transform="translate(408.086 192.618)" fill="#e3e3e3"/>
    <rect id="長方形_46" data-name="長方形 46" width="36.794" height="124.614" rx="8.04" transform="translate(641.37 174.133)" fill="#e3e3e3"/>
    <rect id="長方形_47" data-name="長方形 47" width="36.794" height="124.614" rx="8.04" transform="translate(692.58 131.788)" fill="#e3e3e3"/>
    <rect id="長方形_48" data-name="長方形 48" width="36.794" height="124.614" rx="8.04" transform="translate(743.799 117.98)" fill="#e3e3e3"/>
    <rect id="長方形_49" data-name="長方形 49" width="36.794" height="124.614" rx="8.04" transform="translate(795.009 131.788)" fill="#e3e3e3"/>
    <rect id="長方形_50" data-name="長方形 50" width="36.794" height="124.614" rx="8.04" transform="translate(846.228 174.133)" fill="#e3e3e3"/>
    <text id="スライダー内部" transform="translate(166.13 107.98)" font-size="24" font-family="HiraginoSans-W3, Hiragino Sans"><tspan x="0" y="0">スライダー内部</tspan></text>
  </g>
</svg>
