<svg xmlns="http://www.w3.org/2000/svg" width="1160" height="656" viewBox="0 0 1160 656">
  <g id="home_top" transform="translate(409.949 -1599.24)">
    <g id="グループ_130" data-name="グループ 130" transform="translate(-868.805 1219.001)">
      <text id="Interaction_Elements" data-name="Interaction Elements" transform="translate(458.855 799.726)" fill="#7b7b7b" font-size="45" font-family="TenbySeven, Tenby Seven" letter-spacing="0.4em"><tspan x="144.124" y="43">Interaction Elements</tspan></text>
      <g id="グループ_15" data-name="グループ 15" transform="translate(607.373 409.705)">
        <g id="グループ_14" data-name="グループ 14">
          <g id="グループ_13" data-name="グループ 13">
            <g id="グループ_9" data-name="グループ 9">
              <g id="長方形_6" data-name="長方形 6" transform="translate(256.695 -29.466)" fill="#fff" stroke="#5f5e5e" stroke-width="4.593">
                <rect width="108.109" height="349.291" rx="21.671" stroke="none"/>
                <rect x="2.296" y="2.296" width="103.516" height="344.698" rx="19.374" fill="none"/>
              </g>
            </g>
            <g id="グループ_10" data-name="グループ 10">
              <g id="パス_1" data-name="パス 1" fill="#fff">
                <path d="M 578.823486328125 70.75459289550781 L 396.7829895019531 70.75459289550781 L 396.7829284667969 70.75459289550781 L 396.781005859375 70.75459289550781 C 395.5694885253906 70.75467681884766 394.4304809570312 70.28297424316406 393.5738525390625 69.42635345458984 C 392.7172241210938 68.56970977783203 392.2454223632812 67.43064880371094 392.2454223632812 66.21900177001953 L 392.2454223632812 -2.126999139785767 L 392.2454223632812 -2.120616674423218 C 392.2548217773438 -5.499557971954346 392.9229736328125 -8.775557518005371 394.2313537597656 -11.85761642456055 C 395.4958190917969 -14.83629322052002 397.3028564453125 -17.51247024536133 399.6021728515625 -19.81182289123535 C 401.9015197753906 -22.11114692687988 404.5776977539062 -23.91817474365234 407.556396484375 -25.18264579772949 C 410.6384582519531 -26.49102783203125 413.9144592285156 -27.15917587280273 417.2933959960938 -27.16858673095703 L 578.8300170898438 -27.16758728027344 L 578.823486328125 -27.16758728027344 C 582.2024536132812 -27.1579704284668 585.4783935546875 -26.48961639404297 588.5603637695312 -25.1811466217041 C 591.5390014648438 -23.91652870178223 594.2151489257812 -22.10943984985352 596.5144653320312 -19.81008720397949 C 598.813720703125 -17.51076316833496 600.6207275390625 -14.83461666107178 601.88525390625 -11.85599899291992 C 603.1936645507812 -8.77405834197998 603.8619995117188 -5.498234272003174 603.8716430664062 -2.119440317153931 L 603.8716430664062 -2.125999212265015 L 603.8716430664062 45.70914840698242 C 603.8615112304688 49.08770751953125 603.19287109375 52.36326599121094 601.8842163085938 55.44488143920898 C 600.6194458007812 58.4232063293457 598.8123168945312 61.09906005859375 596.5130615234375 63.39811706542969 C 594.2137451171875 65.69717407226562 591.5377197265625 67.50399780273438 588.559326171875 68.76844024658203 C 585.4776000976562 70.07673645019531 582.2020263671875 70.74497222900391 578.823486328125 70.75459289550781 Z" stroke="none"/>
                <path d="M 578.8169555664062 68.45819091796875 C 584.8880004882812 68.44087219238281 590.595947265625 66.06712341308594 594.8893432617188 61.77421951293945 C 599.1805419921875 57.4834098815918 601.5547485351562 51.77943420410156 601.5751953125 45.7115364074707 L 601.5751953125 -2.112905263900757 C 601.5579223632812 -8.184561729431152 599.1839599609375 -13.89287376403809 594.890625 -18.18631172180176 C 590.5972290039062 -22.47981071472168 584.8887939453125 -24.85387420654297 578.8169555664062 -24.87118721008301 L 417.2997741699219 -24.8721866607666 C 411.2279052734375 -24.85527992248535 405.5194396972656 -22.48146820068359 401.2260131835938 -18.1879997253418 C 396.9325256347656 -13.89456176757812 394.5587158203125 -8.186092376708984 394.5418090820312 -2.114217758178711 L 394.5418090820312 66.21900177001953 C 394.5418090820312 67.02619171142578 394.9527282714844 67.55759429931641 395.1976318359375 67.80252838134766 C 395.4425354003906 68.04740905761719 395.973876953125 68.458251953125 396.7829895019531 68.45819091796875 L 578.8169555664062 68.45819091796875 M 396.7811584472656 73.05100250244141 C 393.0077819824219 73.05125427246094 389.9490051269531 69.99253845214844 389.9490051269531 66.21900177001953 L 389.9490051269531 -2.126999139785767 C 389.9909973144531 -17.20799827575684 402.2059936523438 -29.42299842834473 417.2869873046875 -29.46499824523926 L 578.8300170898438 -29.46399879455566 C 593.9110107421875 -29.42099952697754 606.125 -17.20599937438965 606.1680297851562 -2.125999212265015 L 606.1680297851562 45.71599960327148 C 606.1229858398438 60.79500198364258 593.9089965820312 73.00800323486328 578.8300170898438 73.05100250244141 L 396.7829895019531 73.05100250244141 C 396.7825317382812 73.05100250244141 396.7816162109375 73.05100250244141 396.7811584472656 73.05100250244141 Z" stroke="none" fill="#5f5e5e"/>
              </g>
            </g>
            <g id="グループ_11" data-name="グループ 11">
              <g id="パス_2" data-name="パス 2" fill="#fff">
                <path d="M 578.8221435546875 194.1405792236328 L 396.7820129394531 194.1405792236328 C 394.2803344726562 194.1399383544922 392.2440490722656 192.1036682128906 392.243408203125 189.6013946533203 L 392.2454223632812 100.7520523071289 C 392.2460632324219 98.25022888183594 394.2820739746094 96.21440124511719 396.7839965820312 96.21440124511719 L 578.8280029296875 96.21739959716797 L 578.8212890625 96.21739959716797 C 582.2001342773438 96.22725677490234 585.4759521484375 96.89572906494141 588.5578002929688 98.20425415039062 C 591.5363159179688 99.46893310546875 594.21240234375 101.275993347168 596.51171875 103.5752868652344 C 598.81103515625 105.8745803833008 600.6181030273438 108.550666809082 601.8827514648438 111.5292282104492 C 603.1912841796875 114.6110763549805 603.8597412109375 117.8869018554688 603.86962890625 121.2656936645508 L 603.86962890625 121.2589874267578 L 603.86962890625 169.0931701660156 C 603.8594970703125 172.4717254638672 603.19091796875 175.7473449707031 601.8823852539062 178.8289947509766 C 600.61767578125 181.8073425292969 598.8106079101562 184.4832611083984 596.511474609375 186.7824249267578 C 594.2122802734375 189.0816040039062 591.5363159179688 190.8886413574219 588.5579833984375 192.1533355712891 C 585.476318359375 193.4618988037109 582.2007446289062 194.1305236816406 578.8221435546875 194.1405792236328 Z" stroke="none"/>
                <path d="M 578.8289794921875 191.8441772460938 L 578.8245239257812 191.8441772460938 C 584.8925170898438 191.8237609863281 590.5966186523438 189.4496765136719 594.8876342773438 185.1586456298828 C 599.1786499023438 180.8675842285156 601.552734375 175.1635131835938 601.5731811523438 169.0955505371094 L 601.5731811523438 121.2723999023438 C 601.5555419921875 115.2007369995117 599.1812744140625 109.4924926757812 594.8878784179688 105.1991119384766 C 590.5945434570312 100.9057388305664 584.8862915039062 98.53148651123047 578.8146362304688 98.51380157470703 L 396.7839965820312 98.51080322265625 C 395.5479736328125 98.51080322265625 394.5421752929688 99.51673889160156 394.5418395996094 100.752082824707 L 394.539794921875 189.6007995605469 C 394.5401306152344 190.8374938964844 395.5465087890625 191.8438720703125 396.7820129394531 191.8441772460938 L 578.8289794921875 191.8441772460938 M 578.8289794921875 196.4369964599609 L 396.7820129394531 196.4369964599609 C 393.0069885253906 196.4360198974609 389.947998046875 193.3769836425781 389.9469909667969 189.6020202636719 L 389.9490051269531 100.7519912719727 C 389.9500122070312 96.97798919677734 393.009033203125 93.91799163818359 396.7839965820312 93.91799163818359 L 578.8280029296875 93.92098999023438 C 593.9080200195312 93.96498870849609 606.1220092773438 106.1789932250977 606.166015625 121.2589874267578 L 606.166015625 169.1000213623047 C 606.1209716796875 184.1789855957031 593.9080200195312 196.3919830322266 578.8289794921875 196.4369964599609 Z" stroke="none" fill="#5f5e5e"/>
              </g>
            </g>
            <g id="グループ_12" data-name="グループ 12">
              <g id="パス_3" data-name="パス 3" fill="#fff">
                <path d="M 578.8224487304688 317.6755676269531 L 417.2850036621094 317.6755676269531 C 413.9034423828125 317.6755676269531 410.624267578125 317.0138549804688 407.5385437011719 315.7087097167969 C 404.5568542480469 314.4476013183594 401.8785705566406 312.6417541503906 399.5780334472656 310.3412780761719 C 397.2774963378906 308.040771484375 395.4715576171875 305.3625183105469 394.2104187011719 302.380859375 C 392.9052124023438 299.2950439453125 392.243408203125 296.0157165527344 392.243408203125 292.6340026855469 L 392.2444152832031 224.2900238037109 C 392.2444152832031 221.7886047363281 394.2802429199219 219.7530517578125 396.7826232910156 219.7523956298828 L 578.8289794921875 219.7523956298828 L 578.822265625 219.7523956298828 C 582.2010498046875 219.7622528076172 585.4768676757812 220.4307250976562 588.5587158203125 221.7392578125 C 591.5372924804688 223.0039367675781 594.21337890625 224.8110198974609 596.5126953125 227.1103057861328 C 598.8119506835938 229.4096069335938 600.6190795898438 232.085693359375 601.8837280273438 235.0642547607422 C 603.1922607421875 238.1461029052734 603.8607177734375 241.4219360351562 603.87060546875 244.8007202148438 L 603.87060546875 244.7940216064453 L 603.87060546875 292.6292724609375 C 603.8607177734375 296.0080871582031 603.1922607421875 299.2838439941406 601.8837280273438 302.3655700683594 C 600.6190795898438 305.343994140625 598.81201171875 308.0198974609375 596.5127563476562 310.3190307617188 C 594.2135009765625 312.6181030273438 591.5374145507812 314.4249572753906 588.5588989257812 315.6893920898438 C 585.47705078125 316.9976806640625 582.2012329101562 317.6659545898438 578.8224487304688 317.6755676269531 Z" stroke="none"/>
                <path d="M 578.8158569335938 315.3791809082031 C 584.8875122070312 315.3618774414062 590.595703125 312.9881286621094 594.8889770507812 308.6951599121094 C 599.1823120117188 304.4021911621094 601.5564575195312 298.6941833496094 601.57421875 292.6225891113281 L 601.57421875 244.8074340820312 C 601.5564575195312 238.7357635498047 599.1822509765625 233.0274963378906 594.8888549804688 228.7341156005859 C 590.5955200195312 224.4407348632812 584.88720703125 222.0664825439453 578.8155517578125 222.0487976074219 L 396.7832336425781 222.0487976074219 C 395.5467529296875 222.0491485595703 394.5408325195312 223.0545196533203 394.5408325195312 224.2900543212891 L 394.5398254394531 292.6340026855469 C 394.5398254394531 295.7066955566406 395.1405639648438 298.68505859375 396.3254089355469 301.4862670898438 C 397.4707946777344 304.1942138671875 399.1114501953125 306.6271057128906 401.2018127441406 308.7174682617188 C 403.2922058105469 310.8077697753906 405.7251281738281 312.4483642578125 408.4330749511719 313.5937194824219 C 411.2342224121094 314.7784729003906 414.2124328613281 315.3791809082031 417.2850036621094 315.3791809082031 L 578.8158569335938 315.3791809082031 M 578.8289794921875 319.9719848632812 L 417.2850036621094 319.9719848632812 C 402.18701171875 319.9719848632812 389.947021484375 307.7330017089844 389.947021484375 292.6340026855469 L 389.947998046875 224.2899932861328 C 389.947998046875 220.5160217285156 393.0079956054688 217.4569854736328 396.7820129394531 217.4559936523438 L 578.8289794921875 217.4559936523438 C 593.9089965820312 217.4999847412109 606.1229858398438 229.7140197753906 606.1669921875 244.7940216064453 L 606.1669921875 292.635986328125 C 606.1229858398438 307.7160339355469 593.9089965820312 319.9289855957031 578.8289794921875 319.9719848632812 Z" stroke="none" fill="#5f5e5e"/>
              </g>
            </g>
            <g id="パス_4" data-name="パス 4" fill="#fff">
              <path d="M 578.823486328125 70.75459289550781 L 396.7829895019531 70.75459289550781 L 396.7829284667969 70.75459289550781 L 396.781005859375 70.75459289550781 C 395.5694885253906 70.75467681884766 394.4304809570312 70.28297424316406 393.5738525390625 69.42635345458984 C 392.7172241210938 68.56970977783203 392.2454223632812 67.43064880371094 392.2454223632812 66.21900177001953 L 392.2454223632812 -2.126999139785767 L 392.2454223632812 -2.120616674423218 C 392.2548217773438 -5.499557971954346 392.9229736328125 -8.775557518005371 394.2313537597656 -11.85761642456055 C 395.4958190917969 -14.83629322052002 397.3028564453125 -17.51247024536133 399.6021728515625 -19.81182289123535 C 401.9015197753906 -22.11114692687988 404.5776977539062 -23.91817474365234 407.556396484375 -25.18264579772949 C 410.6384582519531 -26.49102783203125 413.9144592285156 -27.15917587280273 417.2933959960938 -27.16858673095703 L 578.8300170898438 -27.16758728027344 L 578.823486328125 -27.16758728027344 C 582.2024536132812 -27.1579704284668 585.4783935546875 -26.48961639404297 588.5603637695312 -25.1811466217041 C 591.5390014648438 -23.91652870178223 594.2151489257812 -22.10943984985352 596.5144653320312 -19.81008720397949 C 598.813720703125 -17.51076316833496 600.6207275390625 -14.83461666107178 601.88525390625 -11.85599899291992 C 603.1936645507812 -8.77405834197998 603.8619995117188 -5.498234272003174 603.8716430664062 -2.119440317153931 L 603.8716430664062 -2.125999212265015 L 603.8716430664062 45.70914840698242 C 603.8615112304688 49.08770751953125 603.19287109375 52.36326599121094 601.8842163085938 55.44488143920898 C 600.6194458007812 58.4232063293457 598.8123168945312 61.09906005859375 596.5130615234375 63.39811706542969 C 594.2137451171875 65.69717407226562 591.5377197265625 67.50399780273438 588.559326171875 68.76844024658203 C 585.4776000976562 70.07673645019531 582.2020263671875 70.74497222900391 578.823486328125 70.75459289550781 Z" stroke="none"/>
              <path d="M 578.8169555664062 68.45819091796875 C 584.8880004882812 68.44087219238281 590.595947265625 66.06712341308594 594.8893432617188 61.77421951293945 C 599.1805419921875 57.4834098815918 601.5547485351562 51.77943420410156 601.5751953125 45.7115364074707 L 601.5751953125 -2.112905263900757 C 601.5579223632812 -8.184561729431152 599.1839599609375 -13.89287376403809 594.890625 -18.18631172180176 C 590.5972290039062 -22.47981071472168 584.8887939453125 -24.85387420654297 578.8169555664062 -24.87118721008301 L 417.2997741699219 -24.8721866607666 C 411.2279052734375 -24.85527992248535 405.5194396972656 -22.48146820068359 401.2260131835938 -18.1879997253418 C 396.9325256347656 -13.89456176757812 394.5587158203125 -8.186092376708984 394.5418090820312 -2.114217758178711 L 394.5418090820312 66.21900177001953 C 394.5418090820312 67.02619171142578 394.9527282714844 67.55759429931641 395.1976318359375 67.80252838134766 C 395.4425354003906 68.04740905761719 395.973876953125 68.458251953125 396.7829895019531 68.45819091796875 L 578.8169555664062 68.45819091796875 M 396.7811584472656 73.05100250244141 C 393.0077819824219 73.05125427246094 389.9490051269531 69.99253845214844 389.9490051269531 66.21900177001953 L 389.9490051269531 -2.126999139785767 C 389.9909973144531 -17.20799827575684 402.2059936523438 -29.42299842834473 417.2869873046875 -29.46499824523926 L 578.8300170898438 -29.46399879455566 C 593.9110107421875 -29.42099952697754 606.125 -17.20599937438965 606.1680297851562 -2.125999212265015 L 606.1680297851562 45.71599960327148 C 606.1229858398438 60.79500198364258 593.9089965820312 73.00800323486328 578.8300170898438 73.05100250244141 L 396.7829895019531 73.05100250244141 C 396.7825317382812 73.05100250244141 396.7816162109375 73.05100250244141 396.7811584472656 73.05100250244141 Z" stroke="none" fill="#5f5e5e"/>
            </g>
            <g id="グループ_16" data-name="グループ 16">
              <g id="パス_2-2" data-name="パス 2-2" fill="#fff">
                <path d="M 578.8221435546875 194.1405792236328 L 396.7820129394531 194.1405792236328 C 394.2803344726562 194.1399383544922 392.2440490722656 192.1036682128906 392.243408203125 189.6013946533203 L 392.2454223632812 100.7520523071289 C 392.2460632324219 98.25022888183594 394.2820739746094 96.21440124511719 396.7839965820312 96.21440124511719 L 578.8280029296875 96.21739959716797 L 578.8212890625 96.21739959716797 C 582.2001342773438 96.22725677490234 585.4759521484375 96.89572906494141 588.5578002929688 98.20425415039062 C 591.5363159179688 99.46893310546875 594.21240234375 101.275993347168 596.51171875 103.5752868652344 C 598.81103515625 105.8745803833008 600.6181030273438 108.550666809082 601.8827514648438 111.5292282104492 C 603.1912841796875 114.6110763549805 603.8597412109375 117.8869018554688 603.86962890625 121.2656936645508 L 603.86962890625 121.2589874267578 L 603.86962890625 169.0931701660156 C 603.8594970703125 172.4717254638672 603.19091796875 175.7473449707031 601.8823852539062 178.8289947509766 C 600.61767578125 181.8073425292969 598.8106079101562 184.4832611083984 596.511474609375 186.7824249267578 C 594.2122802734375 189.0816040039062 591.5363159179688 190.8886413574219 588.5579833984375 192.1533355712891 C 585.476318359375 193.4618988037109 582.2007446289062 194.1305236816406 578.8221435546875 194.1405792236328 Z" stroke="none"/>
                <path d="M 578.8289794921875 191.8441772460938 L 578.8245239257812 191.8441772460938 C 584.8925170898438 191.8237609863281 590.5966186523438 189.4496765136719 594.8876342773438 185.1586456298828 C 599.1786499023438 180.8675842285156 601.552734375 175.1635131835938 601.5731811523438 169.0955505371094 L 601.5731811523438 121.2723999023438 C 601.5555419921875 115.2007369995117 599.1812744140625 109.4924926757812 594.8878784179688 105.1991119384766 C 590.5945434570312 100.9057388305664 584.8862915039062 98.53148651123047 578.8146362304688 98.51380157470703 L 396.7839965820312 98.51080322265625 C 395.5479736328125 98.51080322265625 394.5421752929688 99.51673889160156 394.5418395996094 100.752082824707 L 394.539794921875 189.6007995605469 C 394.5401306152344 190.8374938964844 395.5465087890625 191.8438720703125 396.7820129394531 191.8441772460938 L 578.8289794921875 191.8441772460938 M 578.8289794921875 196.4369964599609 L 396.7820129394531 196.4369964599609 C 393.0069885253906 196.4360198974609 389.947998046875 193.3769836425781 389.9469909667969 189.6020202636719 L 389.9490051269531 100.7519912719727 C 389.9500122070312 96.97798919677734 393.009033203125 93.91799163818359 396.7839965820312 93.91799163818359 L 578.8280029296875 93.92098999023438 C 593.9080200195312 93.96498870849609 606.1220092773438 106.1789932250977 606.166015625 121.2589874267578 L 606.166015625 169.1000213623047 C 606.1209716796875 184.1789855957031 593.9080200195312 196.3919830322266 578.8289794921875 196.4369964599609 Z" stroke="none" fill="#5f5e5e"/>
              </g>
            </g>
            <g id="グループ_17" data-name="グループ 17">
              <g id="パス_3-2" data-name="パス 3-2" fill="#fff">
                <path d="M 578.8224487304688 317.6755676269531 L 417.2850036621094 317.6755676269531 C 413.9034423828125 317.6755676269531 410.624267578125 317.0138549804688 407.5385437011719 315.7087097167969 C 404.5568542480469 314.4476013183594 401.8785705566406 312.6417541503906 399.5780334472656 310.3412780761719 C 397.2774963378906 308.040771484375 395.4715576171875 305.3625183105469 394.2104187011719 302.380859375 C 392.9052124023438 299.2950439453125 392.243408203125 296.0157165527344 392.243408203125 292.6340026855469 L 392.2444152832031 224.2900238037109 C 392.2444152832031 221.7886047363281 394.2802429199219 219.7530517578125 396.7826232910156 219.7523956298828 L 578.8289794921875 219.7523956298828 L 578.822265625 219.7523956298828 C 582.2010498046875 219.7622528076172 585.4768676757812 220.4307250976562 588.5587158203125 221.7392578125 C 591.5372924804688 223.0039367675781 594.21337890625 224.8110198974609 596.5126953125 227.1103057861328 C 598.8119506835938 229.4096069335938 600.6190795898438 232.085693359375 601.8837280273438 235.0642547607422 C 603.1922607421875 238.1461029052734 603.8607177734375 241.4219360351562 603.87060546875 244.8007202148438 L 603.87060546875 244.7940216064453 L 603.87060546875 292.6292724609375 C 603.8607177734375 296.0080871582031 603.1922607421875 299.2838439941406 601.8837280273438 302.3655700683594 C 600.6190795898438 305.343994140625 598.81201171875 308.0198974609375 596.5127563476562 310.3190307617188 C 594.2135009765625 312.6181030273438 591.5374145507812 314.4249572753906 588.5588989257812 315.6893920898438 C 585.47705078125 316.9976806640625 582.2012329101562 317.6659545898438 578.8224487304688 317.6755676269531 Z" stroke="none"/>
                <path d="M 578.8158569335938 315.3791809082031 C 584.8875122070312 315.3618774414062 590.595703125 312.9881286621094 594.8889770507812 308.6951599121094 C 599.1823120117188 304.4021911621094 601.5564575195312 298.6941833496094 601.57421875 292.6225891113281 L 601.57421875 244.8074340820312 C 601.5564575195312 238.7357635498047 599.1822509765625 233.0274963378906 594.8888549804688 228.7341156005859 C 590.5955200195312 224.4407348632812 584.88720703125 222.0664825439453 578.8155517578125 222.0487976074219 L 396.7832336425781 222.0487976074219 C 395.5467529296875 222.0491485595703 394.5408325195312 223.0545196533203 394.5408325195312 224.2900543212891 L 394.5398254394531 292.6340026855469 C 394.5398254394531 295.7066955566406 395.1405639648438 298.68505859375 396.3254089355469 301.4862670898438 C 397.4707946777344 304.1942138671875 399.1114501953125 306.6271057128906 401.2018127441406 308.7174682617188 C 403.2922058105469 310.8077697753906 405.7251281738281 312.4483642578125 408.4330749511719 313.5937194824219 C 411.2342224121094 314.7784729003906 414.2124328613281 315.3791809082031 417.2850036621094 315.3791809082031 L 578.8158569335938 315.3791809082031 M 578.8289794921875 319.9719848632812 L 417.2850036621094 319.9719848632812 C 402.18701171875 319.9719848632812 389.947021484375 307.7330017089844 389.947021484375 292.6340026855469 L 389.947998046875 224.2899932861328 C 389.947998046875 220.5160217285156 393.0079956054688 217.4569854736328 396.7820129394531 217.4559936523438 L 578.8289794921875 217.4559936523438 C 593.9089965820312 217.4999847412109 606.1229858398438 229.7140197753906 606.1669921875 244.7940216064453 L 606.1669921875 292.635986328125 C 606.1229858398438 307.7160339355469 593.9089965820312 319.9289855957031 578.8289794921875 319.9719848632812 Z" stroke="none" fill="#5f5e5e"/>
              </g>
            </g>
          </g>
        </g>
      </g>
    </g>
    <g id="グループ_131" data-name="グループ 131" transform="translate(-639.338 1293.089)">
      <path id="パス_32" data-name="パス 32" d="M2173.338,2289.633,2135.489,2306v3.148l37.849-16.371Z" transform="translate(-1326.151 -1347)" fill="#7b7b7b"/>
      <path id="パス_33" data-name="パス 33" d="M2135.489,2289.633,2173.338,2306v3.148l-37.849-16.371Z" transform="translate(-1364 -1347)" fill="#7b7b7b"/>
    </g>
  </g>
</svg>
