<svg xmlns="http://www.w3.org/2000/svg" width="991" height="1075" viewBox="0 0 991 1075">
  <g id="グループ_143" data-name="グループ 143" transform="translate(-465)">
    <rect id="長方形_113" data-name="長方形 113" width="986" height="1075" transform="translate(467)" fill="#fff"/>
    <text id="Interaction_Elements" data-name="Interaction Elements" transform="translate(467 751.487)" fill="#7b7b7b" stroke="#707070" stroke-linejoin="round" stroke-width="2" font-size="48" font-family="TenbySeven, Tenby Seven" letter-spacing="0.4em"><tspan x="28.12" y="46">Interaction Elements</tspan></text>
    <g id="グループ_15" data-name="グループ 15" transform="translate(528.568 361.466)">
      <g id="グループ_14" data-name="グループ 14">
        <g id="グループ_13" data-name="グループ 13">
          <g id="グループ_9" data-name="グループ 9">
            <g id="長方形_6" data-name="長方形 6" transform="translate(256.695 -29.466)" fill="#fff" stroke="#5f5e5e" stroke-width="5">
              <rect width="108.109" height="349.291" rx="21.671" stroke="none"/>
              <rect x="2.5" y="2.5" width="103.109" height="344.291" rx="19.171" fill="none"/>
            </g>
          </g>
          <g id="グループ_10" data-name="グループ 10">
            <g id="パス_1" data-name="パス 1" fill="#fff">
              <path d="M 578.8229370117188 70.55100250244141 L 396.7829895019531 70.55100250244141 L 396.7829284667969 70.55100250244141 L 396.7809753417969 70.55100250244141 C 395.6238708496094 70.55108642578125 394.5359802246094 70.10053253173828 393.7178344726562 69.28238677978516 C 392.8996276855469 68.46421051025391 392.4490051269531 67.37626647949219 392.4490051269531 66.21900177001953 L 392.4490051269531 -2.126999139785767 L 392.4490051269531 -2.120028495788574 C 392.4583129882812 -5.471704959869385 393.1210632324219 -8.721146583557129 394.4187316894531 -11.77805805206299 C 395.6729736328125 -14.73258686065674 397.4653930664062 -17.38708686828613 399.7461547851562 -19.6678524017334 C 402.0269165039062 -21.94861602783203 404.6814270019531 -23.74102783203125 407.6359558105469 -24.99526405334473 C 410.69287109375 -26.29294013977051 413.9422912597656 -26.95567512512207 417.2939758300781 -26.96499824523926 L 578.8300170898438 -26.96399879455566 L 578.8229370117188 -26.96399879455566 C 582.174560546875 -26.95444107055664 585.4239501953125 -26.29155731201172 588.4808349609375 -24.99373435974121 C 591.4352416992188 -23.73938179016113 594.0897216796875 -21.9469108581543 596.3704833984375 -19.66611671447754 C 598.6511840820312 -17.38535118103027 600.4435424804688 -14.730881690979 601.6978759765625 -11.77644062042236 C 602.99560546875 -8.719616889953613 603.658447265625 -5.470352172851562 603.6680297851562 -2.118852138519287 L 603.6680297851562 -2.125999212265015 L 603.6680297851562 45.70853042602539 C 603.6580200195312 49.05979537963867 602.9948120117188 52.30879592895508 601.6968383789062 55.36529541015625 C 600.4423217773438 58.31947326660156 598.6497802734375 60.97364807128906 596.3690795898438 63.25414657592773 C 594.08837890625 65.53464508056641 591.4340209960938 67.32685089111328 588.4797973632812 68.58103179931641 C 585.4231567382812 69.87864685058594 582.1741333007812 70.54144287109375 578.8229370117188 70.55100250244141 Z" stroke="none"/>
              <path d="M 578.8300170898438 68.05100250244141 L 578.825439453125 68.05100250244141 C 584.7844848632812 68.03147125244141 590.386962890625 65.70030975341797 594.6013793945312 61.48628234863281 C 598.8161010742188 57.27199554443359 601.14794921875 51.66999816894531 601.1680297851562 45.71032333374023 L 601.1680297851562 -2.121335506439209 C 601.1484985351562 -8.081011772155762 598.8170776367188 -13.68387794494629 594.6026611328125 -17.89837455749512 C 590.38818359375 -22.11296463012695 584.7852783203125 -24.44446754455566 578.8300170898438 -24.46399879455566 L 417.2911071777344 -24.46499824523926 C 411.3312072753906 -24.44584083557129 405.7284240722656 -22.11462020874023 401.513916015625 -17.90009307861328 C 397.2993774414062 -13.68556594848633 394.9681701660156 -8.082785606384277 394.9490051269531 -2.122890949249268 L 394.9490051269531 66.21900177001953 C 394.9490051269531 66.87944030761719 395.28515625 67.31421661376953 395.4855651855469 67.51459503173828 C 395.6859130859375 67.71493530273438 396.12060546875 68.05103302001953 396.7829895019531 68.05100250244141 L 578.8300170898438 68.05100250244141 M 396.7811584472656 73.05100250244141 C 393.0077819824219 73.05125427246094 389.9490051269531 69.99253845214844 389.9490051269531 66.21900177001953 L 389.9490051269531 -2.126999139785767 C 389.9909973144531 -17.20799827575684 402.2059936523438 -29.42299842834473 417.2869873046875 -29.46499824523926 L 578.8300170898438 -29.46399879455566 C 593.9110107421875 -29.42099952697754 606.125 -17.20599937438965 606.1680297851562 -2.125999212265015 L 606.1680297851562 45.71599960327148 C 606.1229858398438 60.79500198364258 593.9089965820312 73.00800323486328 578.8300170898438 73.05100250244141 L 396.7829895019531 73.05100250244141 C 396.7825317382812 73.05100250244141 396.7816162109375 73.05100250244141 396.7811584472656 73.05100250244141 Z" stroke="none" fill="#5f5e5e"/>
            </g>
          </g>
          <g id="グループ_11" data-name="グループ 11">
            <g id="パス_2" data-name="パス 2" fill="#fff">
              <path d="M 578.821533203125 193.9369964599609 L 396.7820129394531 193.9369964599609 C 394.3926086425781 193.9363708496094 392.4476318359375 191.9914245605469 392.4469909667969 189.6013488769531 L 392.4490051269531 100.7520523071289 C 392.4496765136719 98.36251831054688 394.3943176269531 96.41799163818359 396.7839965820312 96.41799163818359 L 578.8280029296875 96.42098999023438 L 578.8207397460938 96.42098999023438 C 582.1722412109375 96.43075561523438 585.4214477539062 97.09378814697266 588.4782104492188 98.39167022705078 C 591.4326171875 99.64604949951172 594.0870361328125 101.4385223388672 596.3677368164062 103.7192535400391 C 598.6484985351562 105.9999923706055 600.4409790039062 108.6544036865234 601.6953125 111.6087875366211 C 602.9932250976562 114.6655502319336 603.65625 117.9147872924805 603.666015625 121.2662811279297 L 603.666015625 121.2589874267578 L 603.666015625 169.0925445556641 C 603.656005859375 172.44384765625 602.9928588867188 175.69287109375 601.6949462890625 178.7494049072266 C 600.4404907226562 181.70361328125 598.6481323242188 184.3578796386719 596.3674926757812 186.6384887695312 C 594.0868530273438 188.9190826416016 591.4326171875 190.7115173339844 588.4783935546875 191.9659576416016 C 585.421875 193.2638397216797 582.1728515625 193.9269866943359 578.821533203125 193.9369964599609 Z" stroke="none"/>
              <path d="M 578.8233642578125 191.4369964599609 C 584.7830200195312 191.4169311523438 590.38525390625 189.085205078125 594.5997314453125 184.8707122802734 C 598.814208984375 180.6562347412109 601.1459350585938 175.0540466308594 601.166015625 169.0943450927734 L 601.166015625 121.2641525268555 C 601.1460571289062 115.3044738769531 598.814453125 109.7014846801758 594.5999755859375 105.4870223999023 C 590.385498046875 101.2725601196289 584.7825317382812 98.94092559814453 578.8279418945312 98.92098999023438 L 396.7839965820312 98.91799163818359 C 395.7724609375 98.91799163818359 394.9493103027344 99.74130249023438 394.9490051269531 100.7521133422852 L 394.9469909667969 189.6007080078125 C 394.947265625 190.6129608154297 395.7710266113281 191.4367370605469 396.7820129394531 191.4369964599609 L 578.8233642578125 191.4369964599609 M 578.8289794921875 196.4369964599609 L 396.7820129394531 196.4369964599609 C 393.0069885253906 196.4360198974609 389.947998046875 193.3769836425781 389.9469909667969 189.6020202636719 L 389.9490051269531 100.7519912719727 C 389.9500122070312 96.97798919677734 393.009033203125 93.91799163818359 396.7839965820312 93.91799163818359 L 578.8280029296875 93.92098999023438 C 593.9080200195312 93.96498870849609 606.1220092773438 106.1789932250977 606.166015625 121.2589874267578 L 606.166015625 169.1000213623047 C 606.1209716796875 184.1789855957031 593.9080200195312 196.3919830322266 578.8289794921875 196.4369964599609 Z" stroke="none" fill="#5f5e5e"/>
            </g>
          </g>
          <g id="グループ_12" data-name="グループ 12">
            <g id="パス_3" data-name="パス 3" fill="#fff">
              <path d="M 578.8218383789062 317.4719848632812 L 417.2850036621094 317.4719848632812 C 413.9308471679688 317.4719848632812 410.6783447265625 316.8156433105469 407.6178283691406 315.5212097167969 C 404.6604309082031 314.2703857421875 402.0038757324219 312.4791564941406 399.7220153808594 310.1973266601562 C 397.4400939941406 307.9154663085938 395.6488037109375 305.2589416503906 394.3979187011719 302.3015441894531 C 393.1033935546875 299.240966796875 392.447021484375 295.9883422851562 392.447021484375 292.6340026855469 L 392.447998046875 224.2900238037109 C 392.447998046875 221.9008483886719 394.3925476074219 219.9566345214844 396.7826843261719 219.9559936523438 L 578.8289794921875 219.9559936523438 L 578.8216552734375 219.9559936523438 C 582.1731567382812 219.9657592773438 585.4224243164062 220.6287841796875 588.4791870117188 221.9266662597656 C 591.43359375 223.1810760498047 594.0879516601562 224.9735412597656 596.3687133789062 227.2542877197266 C 598.6494750976562 229.5350189208984 600.44189453125 232.1894378662109 601.6963500976562 235.1438140869141 C 602.9942016601562 238.2005767822266 603.6572265625 241.4498138427734 603.6669921875 244.8013153076172 L 603.6669921875 244.7940216064453 L 603.6669921875 292.6286926269531 C 603.6572265625 295.9801940917969 602.9942016601562 299.2293701171875 601.6963500976562 302.2859802246094 C 600.4419555664062 305.2402648925781 598.6495361328125 307.89453125 596.3687744140625 310.175048828125 C 594.0880737304688 312.45556640625 591.4336547851562 314.247802734375 588.4793090820312 315.5019836425781 C 585.422607421875 316.7996215820312 582.17333984375 317.4624328613281 578.8218383789062 317.4719848632812 Z" stroke="none"/>
              <path d="M 578.8289794921875 314.9719848632812 L 578.8243408203125 314.9719848632812 C 584.7839965820312 314.9524536132812 590.38671875 312.6212768554688 594.60107421875 308.4071960449219 C 598.8154907226562 304.1931457519531 601.1470947265625 298.5904235839844 601.1669921875 292.6308288574219 L 601.1669921875 244.7991790771484 C 601.1470336914062 238.8395080566406 598.8154296875 233.2365112304688 594.6009521484375 229.0220184326172 C 590.386474609375 224.8075561523438 584.7835083007812 222.4759216308594 578.8289794921875 222.4559936523438 L 396.7833251953125 222.4559936523438 C 395.7713317871094 222.4562683105469 394.947998046875 223.2789916992188 394.947998046875 224.2900543212891 L 394.947021484375 292.6340026855469 C 394.947021484375 295.6519165039062 395.5369567871094 298.576904296875 396.7004089355469 301.3276672363281 C 397.8252563476562 303.987060546875 399.4366455078125 306.37646484375 401.48974609375 308.4295349121094 C 403.5428466796875 310.4825744628906 405.9322814941406 312.0939025878906 408.5917053222656 313.2186889648438 C 411.3423767089844 314.382080078125 414.2672119140625 314.9719848632812 417.2850036621094 314.9719848632812 L 578.8289794921875 314.9719848632812 M 578.8289794921875 319.9719848632812 L 417.2850036621094 319.9719848632812 C 402.18701171875 319.9719848632812 389.947021484375 307.7330017089844 389.947021484375 292.6340026855469 L 389.947998046875 224.2899932861328 C 389.947998046875 220.5160217285156 393.0079956054688 217.4569854736328 396.7820129394531 217.4559936523438 L 578.8289794921875 217.4559936523438 C 593.9089965820312 217.4999847412109 606.1229858398438 229.7140197753906 606.1669921875 244.7940216064453 L 606.1669921875 292.635986328125 C 606.1229858398438 307.7160339355469 593.9089965820312 319.9289855957031 578.8289794921875 319.9719848632812 Z" stroke="none" fill="#5f5e5e"/>
            </g>
          </g>
          <g id="パス_4" data-name="パス 4" fill="#fff">
            <path d="M 578.8229370117188 70.55100250244141 L 396.7829895019531 70.55100250244141 L 396.7829284667969 70.55100250244141 L 396.7809753417969 70.55100250244141 C 395.6238708496094 70.55108642578125 394.5359802246094 70.10053253173828 393.7178344726562 69.28238677978516 C 392.8996276855469 68.46421051025391 392.4490051269531 67.37626647949219 392.4490051269531 66.21900177001953 L 392.4490051269531 -2.126999139785767 L 392.4490051269531 -2.120028495788574 C 392.4583129882812 -5.471704959869385 393.1210632324219 -8.721146583557129 394.4187316894531 -11.77805805206299 C 395.6729736328125 -14.73258686065674 397.4653930664062 -17.38708686828613 399.7461547851562 -19.6678524017334 C 402.0269165039062 -21.94861602783203 404.6814270019531 -23.74102783203125 407.6359558105469 -24.99526405334473 C 410.69287109375 -26.29294013977051 413.9422912597656 -26.95567512512207 417.2939758300781 -26.96499824523926 L 578.8300170898438 -26.96399879455566 L 578.8229370117188 -26.96399879455566 C 582.174560546875 -26.95444107055664 585.4239501953125 -26.29155731201172 588.4808349609375 -24.99373435974121 C 591.4352416992188 -23.73938179016113 594.0897216796875 -21.9469108581543 596.3704833984375 -19.66611671447754 C 598.6511840820312 -17.38535118103027 600.4435424804688 -14.730881690979 601.6978759765625 -11.77644062042236 C 602.99560546875 -8.719616889953613 603.658447265625 -5.470352172851562 603.6680297851562 -2.118852138519287 L 603.6680297851562 -2.125999212265015 L 603.6680297851562 45.70853042602539 C 603.6580200195312 49.05979537963867 602.9948120117188 52.30879592895508 601.6968383789062 55.36529541015625 C 600.4423217773438 58.31947326660156 598.6497802734375 60.97364807128906 596.3690795898438 63.25414657592773 C 594.08837890625 65.53464508056641 591.4340209960938 67.32685089111328 588.4797973632812 68.58103179931641 C 585.4231567382812 69.87864685058594 582.1741333007812 70.54144287109375 578.8229370117188 70.55100250244141 Z" stroke="none"/>
            <path d="M 578.8300170898438 68.05100250244141 L 578.825439453125 68.05100250244141 C 584.7844848632812 68.03147125244141 590.386962890625 65.70030975341797 594.6013793945312 61.48628234863281 C 598.8161010742188 57.27199554443359 601.14794921875 51.66999816894531 601.1680297851562 45.71032333374023 L 601.1680297851562 -2.121335506439209 C 601.1484985351562 -8.081011772155762 598.8170776367188 -13.68387794494629 594.6026611328125 -17.89837455749512 C 590.38818359375 -22.11296463012695 584.7852783203125 -24.44446754455566 578.8300170898438 -24.46399879455566 L 417.2911071777344 -24.46499824523926 C 411.3312072753906 -24.44584083557129 405.7284240722656 -22.11462020874023 401.513916015625 -17.90009307861328 C 397.2993774414062 -13.68556594848633 394.9681701660156 -8.082785606384277 394.9490051269531 -2.122890949249268 L 394.9490051269531 66.21900177001953 C 394.9490051269531 66.87944030761719 395.28515625 67.31421661376953 395.4855651855469 67.51459503173828 C 395.6859130859375 67.71493530273438 396.12060546875 68.05103302001953 396.7829895019531 68.05100250244141 L 578.8300170898438 68.05100250244141 M 396.7811584472656 73.05100250244141 C 393.0077819824219 73.05125427246094 389.9490051269531 69.99253845214844 389.9490051269531 66.21900177001953 L 389.9490051269531 -2.126999139785767 C 389.9909973144531 -17.20799827575684 402.2059936523438 -29.42299842834473 417.2869873046875 -29.46499824523926 L 578.8300170898438 -29.46399879455566 C 593.9110107421875 -29.42099952697754 606.125 -17.20599937438965 606.1680297851562 -2.125999212265015 L 606.1680297851562 45.71599960327148 C 606.1229858398438 60.79500198364258 593.9089965820312 73.00800323486328 578.8300170898438 73.05100250244141 L 396.7829895019531 73.05100250244141 C 396.7825317382812 73.05100250244141 396.7816162109375 73.05100250244141 396.7811584472656 73.05100250244141 Z" stroke="none" fill="#5f5e5e"/>
          </g>
          <g id="グループ_16" data-name="グループ 16">
            <g id="パス_2-2" data-name="パス 2-2" fill="#fff">
              <path d="M 578.821533203125 193.9369964599609 L 396.7820129394531 193.9369964599609 C 394.3926086425781 193.9363708496094 392.4476318359375 191.9914245605469 392.4469909667969 189.6013488769531 L 392.4490051269531 100.7520523071289 C 392.4496765136719 98.36251831054688 394.3943176269531 96.41799163818359 396.7839965820312 96.41799163818359 L 578.8280029296875 96.42098999023438 L 578.8207397460938 96.42098999023438 C 582.1722412109375 96.43075561523438 585.4214477539062 97.09378814697266 588.4782104492188 98.39167022705078 C 591.4326171875 99.64604949951172 594.0870361328125 101.4385223388672 596.3677368164062 103.7192535400391 C 598.6484985351562 105.9999923706055 600.4409790039062 108.6544036865234 601.6953125 111.6087875366211 C 602.9932250976562 114.6655502319336 603.65625 117.9147872924805 603.666015625 121.2662811279297 L 603.666015625 121.2589874267578 L 603.666015625 169.0925445556641 C 603.656005859375 172.44384765625 602.9928588867188 175.69287109375 601.6949462890625 178.7494049072266 C 600.4404907226562 181.70361328125 598.6481323242188 184.3578796386719 596.3674926757812 186.6384887695312 C 594.0868530273438 188.9190826416016 591.4326171875 190.7115173339844 588.4783935546875 191.9659576416016 C 585.421875 193.2638397216797 582.1728515625 193.9269866943359 578.821533203125 193.9369964599609 Z" stroke="none"/>
              <path d="M 578.8233642578125 191.4369964599609 C 584.7830200195312 191.4169311523438 590.38525390625 189.085205078125 594.5997314453125 184.8707122802734 C 598.814208984375 180.6562347412109 601.1459350585938 175.0540466308594 601.166015625 169.0943450927734 L 601.166015625 121.2641525268555 C 601.1460571289062 115.3044738769531 598.814453125 109.7014846801758 594.5999755859375 105.4870223999023 C 590.385498046875 101.2725601196289 584.7825317382812 98.94092559814453 578.8279418945312 98.92098999023438 L 396.7839965820312 98.91799163818359 C 395.7724609375 98.91799163818359 394.9493103027344 99.74130249023438 394.9490051269531 100.7521133422852 L 394.9469909667969 189.6007080078125 C 394.947265625 190.6129608154297 395.7710266113281 191.4367370605469 396.7820129394531 191.4369964599609 L 578.8233642578125 191.4369964599609 M 578.8289794921875 196.4369964599609 L 396.7820129394531 196.4369964599609 C 393.0069885253906 196.4360198974609 389.947998046875 193.3769836425781 389.9469909667969 189.6020202636719 L 389.9490051269531 100.7519912719727 C 389.9500122070312 96.97798919677734 393.009033203125 93.91799163818359 396.7839965820312 93.91799163818359 L 578.8280029296875 93.92098999023438 C 593.9080200195312 93.96498870849609 606.1220092773438 106.1789932250977 606.166015625 121.2589874267578 L 606.166015625 169.1000213623047 C 606.1209716796875 184.1789855957031 593.9080200195312 196.3919830322266 578.8289794921875 196.4369964599609 Z" stroke="none" fill="#5f5e5e"/>
            </g>
          </g>
          <g id="グループ_17" data-name="グループ 17">
            <g id="パス_3-2" data-name="パス 3-2" fill="#fff">
              <path d="M 578.8218383789062 317.4719848632812 L 417.2850036621094 317.4719848632812 C 413.9308471679688 317.4719848632812 410.6783447265625 316.8156433105469 407.6178283691406 315.5212097167969 C 404.6604309082031 314.2703857421875 402.0038757324219 312.4791564941406 399.7220153808594 310.1973266601562 C 397.4400939941406 307.9154663085938 395.6488037109375 305.2589416503906 394.3979187011719 302.3015441894531 C 393.1033935546875 299.240966796875 392.447021484375 295.9883422851562 392.447021484375 292.6340026855469 L 392.447998046875 224.2900238037109 C 392.447998046875 221.9008483886719 394.3925476074219 219.9566345214844 396.7826843261719 219.9559936523438 L 578.8289794921875 219.9559936523438 L 578.8216552734375 219.9559936523438 C 582.1731567382812 219.9657592773438 585.4224243164062 220.6287841796875 588.4791870117188 221.9266662597656 C 591.43359375 223.1810760498047 594.0879516601562 224.9735412597656 596.3687133789062 227.2542877197266 C 598.6494750976562 229.5350189208984 600.44189453125 232.1894378662109 601.6963500976562 235.1438140869141 C 602.9942016601562 238.2005767822266 603.6572265625 241.4498138427734 603.6669921875 244.8013153076172 L 603.6669921875 244.7940216064453 L 603.6669921875 292.6286926269531 C 603.6572265625 295.9801940917969 602.9942016601562 299.2293701171875 601.6963500976562 302.2859802246094 C 600.4419555664062 305.2402648925781 598.6495361328125 307.89453125 596.3687744140625 310.175048828125 C 594.0880737304688 312.45556640625 591.4336547851562 314.247802734375 588.4793090820312 315.5019836425781 C 585.422607421875 316.7996215820312 582.17333984375 317.4624328613281 578.8218383789062 317.4719848632812 Z" stroke="none"/>
              <path d="M 578.8289794921875 314.9719848632812 L 578.8243408203125 314.9719848632812 C 584.7839965820312 314.9524536132812 590.38671875 312.6212768554688 594.60107421875 308.4071960449219 C 598.8154907226562 304.1931457519531 601.1470947265625 298.5904235839844 601.1669921875 292.6308288574219 L 601.1669921875 244.7991790771484 C 601.1470336914062 238.8395080566406 598.8154296875 233.2365112304688 594.6009521484375 229.0220184326172 C 590.386474609375 224.8075561523438 584.7835083007812 222.4759216308594 578.8289794921875 222.4559936523438 L 396.7833251953125 222.4559936523438 C 395.7713317871094 222.4562683105469 394.947998046875 223.2789916992188 394.947998046875 224.2900543212891 L 394.947021484375 292.6340026855469 C 394.947021484375 295.6519165039062 395.5369567871094 298.576904296875 396.7004089355469 301.3276672363281 C 397.8252563476562 303.987060546875 399.4366455078125 306.37646484375 401.48974609375 308.4295349121094 C 403.5428466796875 310.4825744628906 405.9322814941406 312.0939025878906 408.5917053222656 313.2186889648438 C 411.3423767089844 314.382080078125 414.2672119140625 314.9719848632812 417.2850036621094 314.9719848632812 L 578.8289794921875 314.9719848632812 M 578.8289794921875 319.9719848632812 L 417.2850036621094 319.9719848632812 C 402.18701171875 319.9719848632812 389.947021484375 307.7330017089844 389.947021484375 292.6340026855469 L 389.947998046875 224.2899932861328 C 389.947998046875 220.5160217285156 393.0079956054688 217.4569854736328 396.7820129394531 217.4559936523438 L 578.8289794921875 217.4559936523438 C 593.9089965820312 217.4999847412109 606.1229858398438 229.7140197753906 606.1669921875 244.7940216064453 L 606.1669921875 292.635986328125 C 606.1229858398438 307.7160339355469 593.9089965820312 319.9289855957031 578.8289794921875 319.9719848632812 Z" stroke="none" fill="#5f5e5e"/>
            </g>
          </g>
        </g>
      </g>
    </g>
    <g id="グループ_128" data-name="グループ 128" transform="translate(150.662 25.848)">
      <path id="パス_32" data-name="パス 32" d="M2173.338,2289.633,2135.489,2306v3.148l37.849-16.371Z" transform="translate(-1326.151 -1347)" fill="#7b7b7b"/>
      <path id="パス_33" data-name="パス 33" d="M2135.489,2289.633,2173.338,2306v3.148l-37.849-16.371Z" transform="translate(-1364 -1347)" fill="#7b7b7b"/>
    </g>
  </g>
</svg>
